<?xml version="1.0" encoding="UTF-8"?>
<svg id="Layer_1" data-name="Layer 1" xmlns="http://www.w3.org/2000/svg" viewBox="0 0 555.21 470.17">
  <defs>
    <style>
      .cls-1 {
        fill: #373535;
      }
    </style>
  </defs>
  <path class="cls-1" d="M331.02,57.17c-.91-2.27-2.39-2.04-3.64-.23-4.66,7.04-12.27,15.45-20.91,15.45-3.41,0-5.45-3.52-5.45-8.52,0-2.04.34-4.43,1.02-6.7,2.61,1.7,5.34,2.5,8.07,2.5,10,0,17.61-11.93,17.61-18.75,0-1.48-.45-3.18-1.14-4.2-1.59-2.27-3.86-4.09-7.04-5.91-1.14-.68-2.39-.91-3.98-.91-6.59,0-15.79,6.02-21.7,18.07-1.81,3.44-2.9,6.82-3.32,10.03-3.46,6.76-9.2,14.28-13.04,14.28-1.59,0-2.16-1.48-2.16-3.86,0-1.82.45-4.2,1.48-6.7,1.25-2.73,4.09-7.5,10.34-18.63.91-1.59,1.25-3.18,1.25-4.77,0-4.43-3.29-7.95-6.59-7.95-2.16,0-6.14,1.36-9.54,3.86,1.14-1.59,8.18-12.16,10.45-15.91,2.73-4.77,4.09-8.98,4.09-12.04,0-1.59-.34-3.07-.91-4.32-1.02-2.27-2.73-2.73-4.54-.45-9.2,11.82-31.7,49.88-36.24,61.81-.21.55-.39,1.07-.55,1.57-3.22,4.53-6.76,7.63-9.67,7.63-1.93,0-3.07-2.39-3.07-5.79,0-2.5.68-5.45,2.04-8.52,3.98-8.64,10.45-19.88,14.77-27.27,2.5-.34,5.45-.57,7.5-.34,2.73.34,3.52-1.02,2.39-3.07-.79-1.36-2.73-3.18-6.25-3.64,1.36-3.18,1.82-5.79,1.82-7.84,0-1.36-.45-3.29-1.25-4.66-1.25-2.16-2.61-2.27-4.32.23-2.61,3.75-5,7.5-8.52,13.63-2.5.23-5.57.34-8.18.23-2.61-.11-3.75,1.02-2.16,3.41.91,1.36,2.95,2.61,6.48,3.07-4.54,8.18-8.86,17.16-11.13,22.72-1.59,3.75-2.27,6.93-2.27,9.43,0,7.84,5.23,12.73,11.25,12.73,3.77,0,7.23-1.52,10.14-3.58.4.97.96,1.74,1.56,2.44,1.36,1.7,3.07,1.36,3.98-.68,2.73-6.82,6.82-14.66,10.68-21.02,6.02-9.77,16.82-16.93,17.84-16.93.79,0-.91,2.73-3.07,6.48-4.32,6.7-9.88,16.59-9.88,23.75,0,5.91,3.41,9.66,10.91,9.66,5.89,0,11.86-3.73,15.66-8.65,2.33,5.26,7.41,8.73,14.9,8.65,8.86-.11,17.95-5.45,22.72-12.38,2.04-3.07,1.93-6.36,1.59-7.39ZM319.21,36.37c1.25,1.02-1.14,6.36-4.43,10.79-2.27,3.07-5.91,6.48-8.63,6.48-.79,0-1.59-.23-2.5-.8,5.45-10.91,13.86-17.84,15.57-16.47Z"/>
  <g>
    <path class="cls-1" d="M245.73,385.94c2.84,0,4.54-2.61,4.54-5.68,0-3.29-3.07-7.38-6.25-7.38-2.61,0-5,2.95-5,6.14,0,3.52,3.07,6.93,6.7,6.93Z"/>
    <path class="cls-1" d="M408.54,402.87c1.02-9.66-2.16-10.45-5.34-14.2-2.16-2.95-4.2-4.2-7.5-4.2-7.5,0-14.66,5.68-19.77,14.77-2.38,4.3-4,8.73-4.55,12.91-4.35,5.77-9.83,10.34-16.58,14.48,3.75-8.63,8.29-16.93,11.93-24.09,2.84-5.68,4.09-8.75,4.09-11.82,0-2.39-.79-4.54-1.82-5.79-1.48-1.71-3.52-1.82-4.89.79-.68,1.25-1.36,2.39-1.82,3.18-1.02-2.73-3.52-4.77-7.27-4.77-9.73,0-25.63,14.33-29.48,28.79-3.73,6.93-8.95,13.7-12.78,13.7-1.14,0-1.59-1.02-1.59-2.73,0-7.61,9.54-20,12.5-26.25,2.95-5.91,1.93-10.91,0-13.18-1.36-1.59-3.29-1.48-4.66.79l-2.16,3.52c-1.02-2.95-3.52-5-7.61-5-5.79,0-15.11,5.34-24.2,18.41-2,2.78-3.5,5.72-4.53,8.57-.04.06-.09.11-.13.18-4.54,6.82-12.38,15.57-20.91,15.45-3.07-.11-5.11-3.18-5.11-8.18,0-3.41,1.14-8.07,3.41-12.72,4.54-9.2,11.93-16.59,13.29-15.45.46.45-.34,2.5-1.48,4.77-2.04,4.66-2.61,6.93-2.61,8.41,0,3.07,1.93,5.23,3.98,6.48,2.27,1.14,3.29.91,4.09-1.25.46-1.25,1.14-2.95,2.05-4.66,2.16-4.43,3.98-8.63,2.27-12.38-1.82-3.41-6.59-7.27-10.79-7.27-6.59,0-15.57,6.14-21.36,17.84-1.88,3.59-2.98,7.17-3.36,10.54-3.57,7.16-8.99,13.78-13.23,13.78-1.25,0-1.7-1.02-1.7-2.84s.57-4.2,1.59-6.82c1.93-4.54,7.16-13.07,9.32-17.95,2.95-5.68,2.04-10.57-.11-12.84-1.48-1.7-2.84-1.48-4.54.79-3.71,5.22-9.82,16.11-13.15,24.06-.14.17-.26.37-.37.6-3.41,6.93-9.43,15-13.41,15-1.59,0-2.16-1.48-2.16-3.86,0-1.82.46-4.2,1.48-6.7,1.25-2.73,4.09-7.5,10.34-18.63.91-1.59,1.25-3.18,1.25-4.77,0-4.43-3.29-7.95-6.59-7.95-2.16,0-6.13,1.36-9.54,3.86,1.14-1.59,8.18-12.16,10.45-15.91,2.73-4.77,4.09-8.98,4.09-12.04,0-1.59-.34-3.07-.91-4.32-1.02-2.27-2.73-2.73-4.54-.46-8.43,10.83-28.02,43.68-34.74,58.28-4.66,6.18-11.52,12.71-18.89,12.61-3.07-.11-5.11-3.18-5.11-8.18,0-3.41,1.14-8.07,3.41-12.72,4.54-9.2,11.93-16.59,13.29-15.45.46.45-.34,2.5-1.48,4.77-2.04,4.66-2.61,6.93-2.61,8.41,0,3.07,1.93,5.23,3.98,6.48,2.27,1.14,3.29.91,4.09-1.25.46-1.25,1.14-2.95,2.04-4.66,2.16-4.43,3.98-8.63,2.27-12.38-1.82-3.41-6.59-7.27-10.79-7.27-6.59,0-15.57,6.14-21.36,17.84-2.39,4.54-3.52,9.09-3.52,13.18,0,9.09,5.79,15.79,16.25,15.68,5.43-.07,10.98-2.19,15.46-5.38.26,1.92,1.12,3.16,2.04,4.25,1.36,1.71,3.07,1.36,3.98-.68,2.73-6.82,6.82-14.66,10.68-21.02,6.02-9.77,16.82-16.93,17.84-16.93.8,0-.91,2.73-3.07,6.48-4.32,6.7-9.88,16.59-9.88,23.75,0,5.91,3.41,9.66,10.91,9.66,4.74,0,9.51-2.42,13.18-5.92,1.18,3.54,4.2,5.8,9.43,5.8,5.5,0,11.76-3.22,15.72-8.33,2.35,5.11,7.38,8.41,14.73,8.33,7.1-.09,14.41-3.69,19.26-8.62.97,5.06,4.43,8.5,10.05,8.5,4.54,0,9.66-3.52,12.95-6.7.91,4.2,4.2,7.16,9.88,7.16,4.86,0,9.89-2.97,13.48-6.89,1.45,3.9,4.69,6.33,9.36,6.33,3.07,0,6.02-1.14,8.52-2.84l-1.48,3.75c-13.86,4.77-24.88,16.47-24.88,26.7,0,3.52,1.7,6.48,3.29,8.86,2.39,3.18,5.23,3.64,7.95,2.61,9.2-4.32,17.5-21.59,23.52-36.24,8.45-3.09,15.67-7.12,20.17-12.84.53,1.58,1.29,3.08,2.32,4.44,3.18,4.21,7.39,5.79,11.13,5.79,1.7,0,3.07-.34,4.09-.68,8.63-2.95,15.91-14.09,18.29-23.52,1.25-.23,2.16-.68,2.95-1.59.91-1.14.68-2.16-2.27-2.16ZM290.72,425.71c-1.14,0-1.59-1.36-1.59-3.41,0-3.63,1.93-9.66,5.34-15,5.79-9.32,13.63-16.47,15.91-16.47,1.14,0,1.36.8,1.36,2.16,0,2.95-2.05,8.52-6.48,16.25-5.57,9.54-10.79,16.47-14.54,16.47ZM331.73,453.66c-3.52,6.14-6.36,9.54-7.38,8.75-1.14-1.02.34-6.36,3.64-11.93,2.39-3.98,5.91-8.07,10.68-11.48-2.16,5.68-4.66,10.68-6.93,14.66ZM350.82,409.46c-5.57,9.54-10.91,16.47-14.54,16.36-1.02,0-1.48-1.48-1.48-3.64,0-13.18,17.5-31.02,21.36-31.02.8,0,1.14.68,1.14,2.04,0,2.96-2.05,8.52-6.48,16.25ZM394.45,413.1c-4.2,7.73-8.75,11.93-11.7,11.93-1.7,0-2.73-1.36-2.73-4.77,0-4.2,1.82-10.57,4.77-16.02,1.93-3.41,4.09-6.25,6.48-8.52.91,3.98,3.29,6.93,6.93,9.2-.68,2.39-2.04,5.23-3.75,8.18ZM400.01,400.6c-1.25-1.48-1.82-4.43-1.82-6.48,0-1.82,1.02-2.73,1.71-2.73.79,0,1.7.68,1.7,2.39,0,1.48-.46,4.2-1.59,6.82Z"/>
  </g>
  <g>
    <path class="cls-1" d="M120.35,214.55c-6.48,0-11.74-.74-15.81-2.21s-7.21-3.44-9.45-5.92c-2.24-2.47-4-5.12-5.3-7.95-1.53-3.53-2.8-7.71-3.8-12.54-1-4.83-1.74-9.77-2.21-14.83-.47-5.06-.71-9.65-.71-13.77,0-5.53.26-11.71.79-18.54.53-6.83,1.91-13.83,4.15-21.01,1.77-6.36,4.83-11.06,9.18-14.13,4.35-3.06,10.42-4.59,18.19-4.59,8.71,0,14.66,2.74,17.84,8.21,3.18,5.47,4.77,13.51,4.77,24.1,0,1.3-.03,2.59-.09,3.88-.06,1.3-.12,2.56-.18,3.8-.06,1.24-.15,2.47-.26,3.71-.12,1.24-.21,2.38-.27,3.44-.06,1.06-.12,2.09-.18,3.09-.06,1-.09,1.92-.09,2.74,0,3.65.59,6,1.77,7.06,1.18,1.06,2.88,1.59,5.12,1.59h1.24c2.35,0,4.8.53,7.33,1.59,2.53,1.06,4.68,3.18,6.45,6.36,1.77,3.18,2.65,8.01,2.65,14.48,0,8.01-1.39,14.3-4.15,18.9-2.77,4.59-7.15,7.83-13.16,9.71s-13.95,2.83-23.84,2.83Z"/>
    <path class="cls-1" d="M215,214.91c-10.01,0-19.13-2.38-27.37-7.15-8.24-4.77-14.78-11.59-19.6-20.48-4.83-8.89-7.24-19.45-7.24-31.7s2.41-22.6,7.24-31.08c4.83-8.48,11.33-14.95,19.51-19.43,8.18-4.47,17.33-6.71,27.46-6.71s19.34,2.21,27.64,6.62c8.3,4.41,14.92,10.86,19.87,19.34,4.94,8.48,7.42,18.84,7.42,31.08s-2.47,22.81-7.42,31.7c-4.94,8.89-11.57,15.75-19.87,20.57-8.3,4.83-17.51,7.24-27.64,7.24ZM215.18,162.1c1.53,0,2.83-.32,3.89-.97,1.06-.65,1.91-1.53,2.56-2.65.65-1.12.97-2.44.97-3.97s-.33-2.83-.97-3.89c-.65-1.06-1.53-1.88-2.65-2.47-1.12-.59-2.38-.88-3.8-.88s-2.65.29-3.71.88c-1.06.59-1.91,1.41-2.56,2.47-.65,1.06-.97,2.36-.97,3.89s.29,2.86.88,3.97c.59,1.12,1.44,2,2.56,2.65,1.12.65,2.38.97,3.8.97Z"/>
    <path class="cls-1" d="M325.02,214.91c-5.3,0-10.42-1.09-15.36-3.27s-9.48-5.27-13.6-9.27c-4.12-4-7.59-8.77-10.42-14.3-2.12-4.24-4.06-8.65-5.83-13.24-1.77-4.59-3.27-9.24-4.5-13.95-1.24-4.71-2.18-9.45-2.83-14.22-.65-4.77-.97-9.51-.97-14.22,0-6.71.59-12.6,1.77-17.66,1.18-5.06,3.53-9.01,7.06-11.83,3.53-2.83,8.71-4.24,15.54-4.24,7.3,0,12.62,2.27,15.98,6.8,3.36,4.53,5.92,11.86,7.68,21.99.24,1.18.44,2.41.62,3.71.18,1.3.35,2.62.53,3.97.18,1.35.35,2.74.53,4.15.18,1.41.32,2.89.44,4.41.24,1.65.65,2.74,1.24,3.27.59.53,1.24.79,1.94.79s1.41-.27,2.12-.79,1.12-1.62,1.24-3.27c.23-1.53.44-3.03.62-4.5.18-1.47.35-2.85.53-4.15.18-1.29.35-2.59.53-3.89.18-1.29.38-2.53.62-3.71,1.77-10.12,4.36-17.45,7.77-21.99,3.41-4.53,8.77-6.8,16.07-6.8,6.83,0,11.98,1.41,15.45,4.24,3.47,2.83,5.8,6.77,6.97,11.83,1.18,5.06,1.77,10.95,1.77,17.66,0,4.71-.32,9.45-.97,14.22-.65,4.77-1.59,9.51-2.82,14.22-1.24,4.71-2.74,9.36-4.5,13.95-1.77,4.59-3.71,9.01-5.83,13.24-2.82,5.54-6.3,10.3-10.42,14.3-4.12,4-8.63,7.09-13.51,9.27-4.89,2.18-10.04,3.27-15.45,3.27Z"/>
    <path class="cls-1" d="M430.09,214.55c-9.18,0-16.63-.41-22.34-1.24-5.71-.82-10.1-2.18-13.16-4.06-3.06-1.88-5.42-4.41-7.06-7.59-1.3-2.71-2.42-6.18-3.36-10.42-.94-4.24-1.62-9.27-2.03-15.1-.41-5.83-.62-12.45-.62-19.87s.23-13.39.71-18.98c.47-5.59,1.17-10.48,2.12-14.66.94-4.18,2.12-7.68,3.53-10.51,1.65-3.29,4.03-5.92,7.15-7.86,3.12-1.94,7.5-3.35,13.16-4.24,5.65-.88,13.01-1.32,22.07-1.32,10,0,18.07.53,24.19,1.59,6.12,1.06,10.57,3.09,13.33,6.09,2.76,3,4.15,7.39,4.15,13.16s-1.56,10.18-4.68,13.24c-3.12,3.06-8.15,4.59-15.1,4.59-2.94,0-5.36-.03-7.24-.09-1.88-.06-3.65-.12-5.3-.18-1.65-.06-3.59-.09-5.83-.09-1.3,0-2.36.3-3.18.88-.83.59-1.24,1.59-1.24,3v.53c0,.82.32,1.5.97,2.03.65.53,1.74.79,3.27.79,2.47,0,4.62-.03,6.45-.09,1.82-.06,3.65-.12,5.47-.18,1.82-.06,3.8-.09,5.92-.09,5.77,0,9.95,1.06,12.54,3.18,2.59,2.12,3.89,5.42,3.89,9.89s-1.21,7.8-3.62,9.98c-2.41,2.18-6.21,3.27-11.39,3.27-2.94,0-5.95-.06-9.01-.18-3.06-.12-6.53-.18-10.42-.18-2.83,0-4.24,1-4.24,3v.88c0,.94.38,1.71,1.15,2.3.76.59,1.68.88,2.74.88h25.25c4.24,0,7.59,1.27,10.07,3.8,2.47,2.53,3.71,6.39,3.71,11.57,0,3.3-.5,6.3-1.5,9.01-1,2.71-2.94,5.06-5.83,7.06-2.89,2-7.12,3.53-12.71,4.59-5.59,1.06-12.92,1.59-21.99,1.59Z"/>
    <path class="cls-1" d="M30.9,344.07c-6.36,0-11.36-.71-15.01-2.12-3.65-1.41-6.42-3.68-8.3-6.8-1.88-3.12-3.42-7.27-4.59-12.45-1.18-6-1.97-12.33-2.38-18.98-.41-6.65-.62-12.63-.62-17.92s.23-10.86.71-17.04c.47-6.18,1.35-12.33,2.65-18.45.94-4,2.18-7.42,3.71-10.24,1.53-2.83,3.82-5.09,6.89-6.8,3.06-1.71,7.24-2.97,12.54-3.8,5.3-.82,12.07-1.24,20.31-1.24s15.74.79,21.46,2.38c5.71,1.59,10.01,4.12,12.89,7.59,2.88,3.47,4.33,8.04,4.33,13.69,0,4.83-1.59,9.18-4.77,13.07-3.18,3.88-8.12,5.83-14.83,5.83-.94,0-2.15-.03-3.62-.09-1.47-.06-3.03-.12-4.68-.18-1.65-.06-3.12-.09-4.42-.09-.83,0-1.56.15-2.21.44-.65.3-1.15.77-1.5,1.41-.35.65-.53,1.56-.53,2.74,0,.83.12,1.56.35,2.21.23.65.68,1.12,1.32,1.41.65.29,1.44.44,2.38.44,1.29,0,2.44-.03,3.44-.09,1-.06,1.97-.12,2.91-.18.94-.06,2-.09,3.18-.09,6.47,0,11.24,1.65,14.3,4.94,3.06,3.3,4.59,8.54,4.59,15.72,0,6.59-1.88,11.89-5.65,15.89-3.77,4-9.12,6-16.07,6h-1.94c-1.65,0-2.83.44-3.53,1.32-.71.88-1.06,1.97-1.06,3.27v1.59c0,2.36-.62,4.83-1.85,7.42-1.24,2.59-3.44,4.77-6.62,6.53s-7.77,2.65-13.77,2.65Z"/>
    <path class="cls-1" d="M116.2,343.72c-6.83,0-12.36-1.56-16.6-4.68-4.24-3.12-7.3-8.56-9.18-16.33-1.3-6.12-2.21-12.48-2.74-19.07-.53-6.59-.79-12.54-.79-17.84s.26-10.86.79-17.04c.53-6.18,1.56-12.33,3.09-18.45,1.29-5.65,3.65-10.07,7.06-13.24,3.41-3.18,8.45-5.39,15.1-6.62,6.65-1.24,15.51-1.85,26.58-1.85,12.71,0,22.75,1.44,30.11,4.33,7.36,2.89,12.63,7.12,15.81,12.71,3.18,5.59,4.77,12.39,4.77,20.4,0,6.12-.94,10.92-2.83,14.39-1.88,3.47-3.88,6.45-6,8.92-.47.47-.86,1.03-1.15,1.68-.3.65-.44,1.44-.44,2.38,0,1.3.2,2.36.62,3.18.41.82.97,1.59,1.68,2.29,2.12,2.12,3.85,4.18,5.21,6.18,1.35,2,2.47,4,3.35,6,.88,2,1.5,4,1.85,6,.35,2,.53,4.12.53,6.36,0,5.54-1.8,10.3-5.39,14.3-3.59,4-9.04,6-16.33,6-6.24,0-11.21-1.82-14.92-5.47-3.71-3.65-6.62-7.89-8.74-12.71-1.18-2.59-2.21-4.94-3.09-7.06-.88-2.12-1.8-4.3-2.74-6.53-.71-2-1.41-3.47-2.12-4.42-.71-.94-1.47-1.41-2.3-1.41-.94,0-1.59.44-1.94,1.32-.35.88-.53,2.09-.53,3.62,0,1.65.03,3.09.09,4.33.06,1.24.12,2.56.18,3.97.06,1.41.09,3.3.09,5.65,0,4.94-1.62,9.3-4.86,13.07-3.24,3.77-7.98,5.65-14.22,5.65ZM138.1,275.91c2.35,0,4.21-.26,5.56-.79,1.35-.53,2.35-1.29,3-2.29.65-1,.97-2.27.97-3.8,0-2.35-.68-3.97-2.03-4.86-1.35-.88-3.74-1.32-7.15-1.32-1.65,0-3,.21-4.06.62-1.06.41-1.85,1.06-2.38,1.94-.53.88-.79,2.15-.79,3.8,0,1.53.2,2.8.62,3.8.41,1,1.15,1.74,2.21,2.21,1.06.47,2.41.71,4.06.71Z"/>
    <path class="cls-1" d="M221.62,343.72c-10.24,0-17.37-3.88-21.37-11.66-1.41-2.83-2.53-6.24-3.36-10.24-.83-4-1.44-8.95-1.85-14.83-.41-5.89-.62-13.01-.62-21.37,0-7.89.2-14.63.62-20.22.41-5.59,1.06-10.39,1.94-14.39.88-4,1.97-7.42,3.27-10.24,4-8.12,11.13-12.18,21.37-12.18s17.36,4.06,21.37,12.18c1.41,2.83,2.53,6.24,3.35,10.24.82,4,1.44,8.8,1.85,14.39.41,5.59.62,12.33.62,20.22,0,8.36-.18,15.48-.53,21.37-.35,5.89-.97,10.83-1.85,14.83-.88,4-2.03,7.42-3.44,10.24-4,7.77-11.13,11.66-21.37,11.66Z"/>
    <path class="cls-1" d="M296.85,344.43c-8.36,0-15.07-.35-20.13-1.06-5.06-.71-8.92-1.94-11.57-3.71s-4.74-4.12-6.27-7.06c-2.24-4.47-3.88-10.51-4.94-18.1s-1.59-17.22-1.59-28.87c0-7.18.23-13.62.71-19.34.47-5.71,1.21-10.71,2.21-15.01,1-4.3,2.21-7.92,3.62-10.86,1.53-3.06,3.65-5.5,6.36-7.33,2.71-1.82,6.56-3.15,11.57-3.97,5-.82,11.68-1.24,20.04-1.24,19.31,0,34.46,4.77,45.47,14.3,11.01,9.54,16.39,23.78,16.16,42.74.12,13.42-2.33,24.55-7.33,33.38-5,8.83-12.13,15.39-21.37,19.69-9.24,4.3-20.22,6.45-32.94,6.45ZM302.68,291.62c2,0,3.8-.26,5.39-.79,1.59-.53,2.85-1.38,3.8-2.56.94-1.18,1.41-2.59,1.41-4.24,0-1.77-.44-3.15-1.33-4.15-.88-1-2.09-1.71-3.62-2.12-1.53-.41-3.3-.62-5.3-.62-.59,0-1.15.06-1.68.18-.53.12-.97.29-1.32.53-.35.24-.65.62-.88,1.15-.24.53-.41,1.21-.53,2.03-.12.83-.18,1.88-.18,3.18,0,1.41.06,2.59.18,3.53.12.94.35,1.71.71,2.3.35.59.79,1,1.32,1.24.53.24,1.21.35,2.03.35Z"/>
    <path class="cls-1" d="M415.17,344.43c-7.18,0-14.04-1.18-20.57-3.53s-12.33-6-17.39-10.95c-5.06-4.94-9.07-11.15-12.01-18.63-2.94-7.47-4.41-16.22-4.41-26.22s1.77-17.89,5.3-25.08c3.53-7.18,8.36-13.16,14.48-17.92,6.12-4.77,13.04-8.33,20.75-10.68,7.71-2.35,15.74-3.53,24.1-3.53,11.54,0,19.6,1.59,24.19,4.77,4.59,3.18,6.89,7.48,6.89,12.89s-1.74,9.71-5.21,12.54c-3.47,2.83-8.1,4.53-13.86,5.12-7.06.59-12.75,1.68-17.04,3.27-4.3,1.59-7.54,3.47-9.71,5.65s-3.62,4.53-4.33,7.06c-.71,2.53-1.06,4.97-1.06,7.33,0,3.06.56,5.83,1.68,8.3,1.12,2.47,2.65,4.42,4.59,5.83,1.94,1.41,4.09,2.12,6.45,2.12.94,0,1.71-.12,2.3-.35.59-.23,1.03-.59,1.33-1.06.29-.47.44-1,.44-1.59,0-.82-.27-1.41-.79-1.77-.53-.35-1.44-.76-2.74-1.24-1.3-.47-2.38-1.21-3.27-2.21-.88-1-1.53-2.27-1.94-3.8-.41-1.53-.62-3.18-.62-4.94,0-3.18.65-6.06,1.94-8.65,1.29-2.59,3.62-4.65,6.98-6.18,3.35-1.53,8.15-2.3,14.39-2.3,5.41,0,9.8.74,13.16,2.21,3.36,1.47,5.94,3.5,7.77,6.09,1.82,2.59,3.06,5.65,3.71,9.18.65,3.53.97,7.42.97,11.65,0,9.18-1.68,17.28-5.03,24.28-3.35,7.01-8.45,12.48-15.28,16.42-6.83,3.95-15.54,5.92-26.14,5.92Z"/>
    <path class="cls-1" d="M513.18,344.07c-9.18,0-16.63-.41-22.34-1.24-5.71-.82-10.1-2.18-13.16-4.06-3.06-1.88-5.42-4.42-7.06-7.59-1.3-2.71-2.42-6.18-3.36-10.42-.94-4.24-1.62-9.27-2.03-15.1-.41-5.83-.62-12.45-.62-19.87s.23-13.39.71-18.98c.47-5.59,1.17-10.48,2.12-14.66.94-4.18,2.12-7.68,3.53-10.51,1.65-3.29,4.03-5.92,7.15-7.86,3.12-1.94,7.5-3.36,13.16-4.24,5.65-.88,13.01-1.32,22.07-1.32,10,0,18.07.53,24.19,1.59,6.12,1.06,10.57,3.09,13.33,6.09,2.76,3,4.15,7.39,4.15,13.16s-1.56,10.18-4.68,13.24c-3.12,3.06-8.15,4.59-15.1,4.59-2.94,0-5.36-.03-7.24-.09-1.88-.06-3.65-.12-5.3-.18-1.65-.06-3.59-.09-5.83-.09-1.3,0-2.36.29-3.18.88-.83.59-1.24,1.59-1.24,3v.53c0,.83.32,1.5.97,2.03.65.53,1.74.79,3.27.79,2.47,0,4.62-.03,6.45-.09,1.82-.06,3.65-.12,5.47-.18,1.82-.06,3.8-.09,5.92-.09,5.77,0,9.95,1.06,12.54,3.18,2.59,2.12,3.89,5.42,3.89,9.89s-1.21,7.8-3.62,9.98c-2.41,2.18-6.21,3.27-11.39,3.27-2.94,0-5.95-.06-9.01-.18-3.06-.12-6.53-.18-10.42-.18-2.83,0-4.24,1-4.24,3v.88c0,.94.38,1.71,1.15,2.3.76.59,1.68.88,2.74.88h25.25c4.24,0,7.59,1.27,10.07,3.8,2.47,2.53,3.71,6.39,3.71,11.57,0,3.3-.5,6.3-1.5,9.01-1,2.71-2.94,5.06-5.83,7.06-2.89,2-7.12,3.53-12.71,4.59-5.59,1.06-12.92,1.59-21.99,1.59Z"/>
  </g>
</svg>